<svg xmlns="http://www.w3.org/2000/svg" viewBox="0 0 1200 630" role="img" aria-label="Mir Athfan Ali - Full-Stack AI Engineer">
  <defs>
    <pattern id="grid" width="48" height="48" patternUnits="userSpaceOnUse">
      <path d="M 48 0 L 0 0 0 48" fill="none" stroke="rgba(83,243,225,0.11)" stroke-width="1"/>
    </pattern>
    <linearGradient id="wash" x1="0" x2="1" y1="0" y2="1">
      <stop offset="0" stop-color="#102022"/>
      <stop offset="0.48" stop-color="#050708"/>
      <stop offset="1" stop-color="#160f11"/>
    </linearGradient>
  </defs>
  <rect width="1200" height="630" fill="url(#wash)"/>
  <rect width="1200" height="630" fill="url(#grid)" opacity="0.7"/>
  <rect x="72" y="64" width="76" height="56" rx="8" fill="#071012" stroke="#53f3e1" stroke-opacity="0.65"/>
  <text x="92" y="100" fill="#53f3e1" font-family="Arial, sans-serif" font-size="25" font-weight="700" letter-spacing="5">MA</text>
  <text x="72" y="252" fill="#ffffff" font-family="Arial, sans-serif" font-size="82" font-weight="800">Mir Athfan Ali</text>
  <text x="72" y="318" fill="#53f3e1" font-family="Arial, sans-serif" font-size="42" font-weight="700">Full-Stack AI Engineer</text>
  <text x="72" y="386" fill="#c9d4d7" font-family="Arial, sans-serif" font-size="30">AI products across mobile, backend, agents,</text>
  <text x="72" y="426" fill="#c9d4d7" font-family="Arial, sans-serif" font-size="30">vector search, and recommendation systems.</text>
  <g transform="translate(72 510)" fill="none" stroke="#dfb0a9" stroke-opacity="0.85">
    <rect width="104" height="42" rx="8"/>
    <rect x="124" width="164" height="42" rx="8"/>
    <rect x="308" width="136" height="42" rx="8"/>
    <rect x="464" width="150" height="42" rx="8"/>
  </g>
  <text x="104" y="538" fill="#dfb0a9" font-family="Arial, sans-serif" font-size="18" font-weight="700">AURA</text>
  <text x="150" y="538" fill="#dfb0a9" font-family="Arial, sans-serif" font-size="18" font-weight="700">React Native</text>
  <text x="405" y="538" fill="#dfb0a9" font-family="Arial, sans-serif" font-size="18" font-weight="700">OpenAI</text>
  <text x="548" y="538" fill="#dfb0a9" font-family="Arial, sans-serif" font-size="18" font-weight="700">LangGraph</text>
  <g transform="translate(760 124)">
    <rect width="340" height="350" rx="12" fill="#0d1114" stroke="rgba(255,255,255,0.18)"/>
    <circle cx="32" cy="32" r="7" fill="#ff625f"/>
    <circle cx="54" cy="32" r="7" fill="#f9c75c"/>
    <circle cx="76" cy="32" r="7" fill="#67d379"/>
    <text x="32" y="92" fill="#53f3e1" font-family="Menlo, monospace" font-size="20">const engineer = {</text>
    <text x="54" y="126" fill="#dce7e7" font-family="Menlo, monospace" font-size="18">role: "Full-Stack AI",</text>
    <text x="54" y="160" fill="#dce7e7" font-family="Menlo, monospace" font-size="18">product: "AURA",</text>
    <text x="54" y="194" fill="#dce7e7" font-family="Menlo, monospace" font-size="18">stack: ["TS", "Python"],</text>
    <text x="32" y="228" fill="#53f3e1" font-family="Menlo, monospace" font-size="20">};</text>
    <text x="32" y="294" fill="#dce7e7" font-family="Menlo, monospace" font-size="18">shipAcrossMobileBackendAndAI();</text>
  </g>
</svg>
